# xmcd
#
# Track frame offsets:
#  150
#  20395
#  44147
#  58811
#  79152
#  93321
#  112553
#  132881
#  149582
#  171532
#  191519
#  209895
#
# Disc length: 3318 seconds
#
# Revision: 0
# Processed by: cddbd v1.5.2PL0 Copyright (c) Steve Scherf et al.
# Submitted via: AltoMP3_Maker 3.0
#
DISCID=b30cf40c
DTITLE=Todd Snider - Songs for the Daily Planet
DYEAR=1900
DGENRE=
TTITLE0=My Generation. Part 2
TTITLE1=Easy Money
TTITLE2=That Was Me
TTITLE3=This Land is Our Land
TTITLE4=Alright Guy
TTITLE5=I Spoke as a Child
TTITLE6=Turn It Up
TTITLE7=Trouble
TTITLE8=A Lot More
TTITLE9=You Think You Know Somebody
TTITLE10=Somebody's Coming
TTITLE11=Joe's Blues
EXTD=
EXTT0=
EXTT1=
EXTT2=
EXTT3=
EXTT4=
EXTT5=
EXTT6=
EXTT7=
EXTT8=
EXTT9=
EXTT10=
EXTT11=
PLAYORDER=
